<svg width="100%" height="100%" viewBox="0 0 1000 280" version="1.1" xmlns="http://www.w3.org/2000/svg" xmlns:xlink="http://www.w3.org/1999/xlink" xml:space="preserve" xmlns:serif="http://www.serif.com/" style="fill-rule:evenodd;clip-rule:evenodd;stroke-linejoin:round;stroke-miterlimit:2;">
    <path d="M141.385,97.215l-8.96,-0l-0,-31.26c-0,-12.316 -9.984,-22.299 -22.3,-22.299l-53.559,-0c-12.316,-0 -22.3,9.983 -22.3,22.299l0,160.678c0,12.315 9.984,22.299 22.3,22.299c-0,0 53.559,0 53.559,0c12.316,0 22.3,-9.984 22.3,-22.299l-0,-31.26l8.96,0l-0,31.26c-0,12.315 9.984,22.299 22.299,22.299c0,0 53.559,0 53.559,0c12.316,0 22.3,-9.984 22.3,-22.299c-0,-0 -0,-39.552 -0,-56.555c8.463,8.802 19.208,15.915 32.323,20.5l0,36.055c0,12.315 9.984,22.299 22.3,22.299c-0,0 53.559,0 53.559,0c12.316,0 22.3,-9.984 22.3,-22.299c-0,-0 -0,-36.684 -0,-36.684c19.086,-7.261 33.221,-19.711 41.969,-36.285c1.984,-3.758 3.692,-7.765 5.095,-12.017c0.896,0.11 1.808,0.167 2.733,0.167l31.259,-0l0.001,84.819c-0,12.315 9.983,22.299 22.299,22.299c0,0 53.559,0 53.559,0c12.316,0 22.3,-9.984 22.3,-22.299l-0,-84.819l29.355,-0l0,84.819c0,12.315 9.984,22.299 22.3,22.299c-0,0 160.677,0 160.677,0c12.316,0 22.3,-9.984 22.3,-22.299l-0,-53.746c7.537,7.211 16.727,12.964 27.498,17.061l-0,36.685c-0,12.315 9.984,22.299 22.299,22.299c0,0 53.559,0 53.559,0c12.316,0 22.3,-9.984 22.3,-22.299l-0,-36.055c64.749,-22.635 71.803,-106.948 30.931,-152.163c-6.513,-7.205 -16.94,-9.366 -25.78,-5.343c0,0 -41.776,19.014 -41.776,19.014c-5.41,2.462 -9.613,6.982 -11.676,12.557c-2.062,5.572 -1.815,11.737 0.686,17.127c0.036,0.077 3.281,7.144 4.919,15.359c0.41,2.053 0.724,4.189 0.778,6.284c0.012,0.491 -0.043,1.134 -0.115,1.742c-3.209,1.224 -7.877,1.327 -11.984,1.025c-0.35,-0.026 -0.75,-0.081 -1.164,-0.152c-0.085,-0.879 -0.143,-1.754 -0.126,-2.408c0.114,-4.443 0.894,-8.197 0.946,-8.445c1.285,-5.778 0.226,-11.82 -2.944,-16.809c-3.172,-4.993 -8.198,-8.52 -13.971,-9.807c0,-0 -46.864,-10.444 -46.864,-10.444c-3.051,-0.68 -6.1,-0.699 -8.995,-0.149c-3.21,-8.37 -11.321,-14.31 -20.821,-14.31l-160.677,-0c-3.675,-0 -7.143,0.889 -10.198,2.465c-3.055,-1.576 -6.522,-2.465 -10.198,-2.465l-160.677,-0c-9.5,-0 -17.611,5.94 -20.821,14.31c-2.895,-0.55 -5.944,-0.531 -8.995,0.149c0,-0 -46.864,10.444 -46.864,10.444c-5.773,1.287 -10.799,4.814 -13.971,9.807c-3.17,4.99 -4.23,11.034 -2.945,16.805c0.033,0.153 0.831,3.947 0.948,8.449c0.016,0.654 -0.042,1.529 -0.127,2.408c-0.414,0.071 -0.813,0.126 -1.164,0.152c-4.107,0.302 -8.774,0.199 -11.983,-1.025c-0.073,-0.608 -0.128,-1.251 -0.115,-1.742c0.053,-2.095 0.368,-4.231 0.777,-6.284c1.638,-8.215 4.884,-15.282 4.919,-15.359c2.502,-5.39 2.749,-11.555 0.686,-17.127c-2.063,-5.575 -6.266,-10.095 -11.676,-12.557c0,-0 -41.776,-19.014 -41.776,-19.014c-8.84,-4.023 -19.267,-1.862 -25.78,5.343c-3.154,3.49 -6.025,7.213 -8.603,11.122l0,0c-3.969,-3.652 -9.269,-5.881 -15.089,-5.881l-53.559,-0c-12.315,-0 -22.299,9.983 -22.299,22.299l-0,31.26Zm133.339,94.168l-0,-0l-0,-0l-0,-0Zm179.215,-49.569l0,-2.858c0,0 0,2.858 0,2.858Z" style="fill:#fff;"/>
    <clipPath id="_clip1">
        <path d="M229.394,34.869c-3.765,-1.473 -7.863,-2.281 -12.151,-2.281l-53.559,-0c-10.966,-0 -20.697,5.29 -26.779,13.461c-6.082,-8.171 -15.813,-13.461 -26.78,-13.461l-53.559,-0c-18.428,-0 -33.367,14.939 -33.367,33.367c-0,0 -0,160.678 -0,160.678c-0,18.428 14.939,33.367 33.367,33.367c-0,0 53.559,-0 53.559,-0c10.967,0 20.698,-5.291 26.78,-13.461c6.082,8.17 15.813,13.461 26.779,13.461c0,0 53.559,0 53.559,0c18.429,0 33.368,-14.939 33.368,-33.367l-0,-33.778c3.221,1.916 6.615,3.67 10.187,5.238l0,28.54c0,18.428 14.94,33.367 33.368,33.367c-0,0 53.559,0 53.559,0c18.428,0 33.367,-14.939 33.367,-33.367c0,-0 0,-29.359 0,-29.359c18.183,-8.531 31.833,-21.663 40.69,-38.443c1.017,-1.926 1.97,-3.909 2.857,-5.949l15.375,-0l-0,73.751c-0,18.428 14.939,33.367 33.367,33.367c0,0 53.559,0 53.559,0c18.428,0 33.368,-14.939 33.368,-33.367l-0,-73.751l7.22,-0l-0,73.751c-0,18.428 14.939,33.367 33.367,33.367c-0,0 160.677,0 160.677,0c18.429,0 33.368,-14.939 33.368,-33.367l-0,-32.088c1.741,0.955 3.528,1.863 5.362,2.724l-0,29.364c-0,18.428 14.939,33.367 33.367,33.367c0,0 53.559,0 53.559,0c18.429,0 33.368,-14.939 33.368,-33.367c-0,-0 -0,-28.532 -0,-28.532c65.584,-28.968 72.188,-118.307 28.073,-167.108c-9.745,-10.781 -25.348,-14.014 -38.575,-7.994c0,-0 -41.776,19.013 -41.776,19.013c-8.095,3.685 -14.384,10.448 -17.471,18.79l-0.309,0.903c-3.03,-1.826 -6.362,-3.165 -9.878,-3.949c-0,0 -46.865,-10.444 -46.865,-10.444c-1.691,-0.377 -3.382,-0.618 -5.06,-0.73c-6.05,-8.471 -15.96,-13.994 -27.163,-13.994l-160.677,-0c-3.557,-0 -6.984,0.558 -10.198,1.59c-3.214,-1.032 -6.64,-1.59 -10.198,-1.59l-160.677,-0c-11.203,-0 -21.113,5.523 -27.162,13.994c-1.679,0.112 -3.37,0.353 -5.061,0.73c-0,0 -46.864,10.444 -46.864,10.444c-3.517,0.784 -6.849,2.123 -9.879,3.949l-0.309,-0.903c-3.087,-8.342 -9.376,-15.105 -17.471,-18.79c0,0 -41.776,-19.013 -41.776,-19.013c-13.227,-6.02 -28.83,-2.787 -38.575,7.994c-1.144,1.265 -2.254,2.558 -3.331,3.876Zm3.356,19.36c-3.548,-4.688 -9.174,-7.716 -15.507,-7.716l-53.559,0c-10.737,0 -19.442,8.705 -19.442,19.442l0,34.117c0,0 -14.675,0 -14.675,0c0,0 0,-34.117 0,-34.117c0,-10.737 -8.704,-19.442 -19.442,-19.442l-53.559,0c-10.738,0 -19.442,8.705 -19.442,19.442l-0,160.678c-0,10.737 8.704,19.442 19.442,19.442l53.559,-0c10.738,-0 19.442,-8.705 19.442,-19.442l0,-34.118c0,0 14.675,0 14.675,0c0,0 0,34.118 0,34.118c0,10.737 8.705,19.442 19.442,19.442l53.559,-0c10.738,-0 19.442,-8.705 19.442,-19.442l0,-64.175c9.136,11.561 21.763,20.788 38.039,26.067c-0,0 -0,38.108 -0,38.108c-0,10.737 8.704,19.442 19.442,19.442l53.559,-0c10.737,-0 19.442,-8.705 19.442,-19.442l-0,-38.676c19.325,-6.889 33.591,-19.127 42.3,-35.626c2.276,-4.313 4.175,-8.966 5.651,-13.951c1.505,0.378 3.081,0.576 4.704,0.576l34.117,0c0,0 0,87.677 0,87.677c0,10.737 8.705,19.442 19.442,19.442l53.559,-0c10.738,-0 19.442,-8.705 19.442,-19.442l0,-87.677c0,0 34.117,0 34.117,0l0.954,-0.024l-0,87.701c-0,10.737 8.704,19.442 19.442,19.442l160.677,-0c10.738,-0 19.442,-8.705 19.442,-19.442l0,-60.916c8.426,9.832 19.556,17.372 33.213,22.24c0,-0 0,38.676 0,38.676c0,10.737 8.705,19.442 19.442,19.442l53.559,-0c10.738,-0 19.442,-8.705 19.442,-19.442l0,-38.108c64.537,-20.934 71.688,-103.923 31.669,-148.194c-5.678,-6.281 -14.769,-8.165 -22.476,-4.658l-41.776,19.014c-4.717,2.147 -8.382,6.088 -10.18,10.948c-1.799,4.86 -1.583,10.237 0.6,14.937c0,-0 3.412,7.394 5.128,15.998c0.441,2.211 0.774,4.514 0.831,6.77c0.029,1.117 -0.226,2.914 -0.362,3.75c-3.539,1.966 -9.566,2.324 -14.802,1.94c-1.037,-0.076 -2.448,-0.366 -3.558,-0.627c-0.191,-1.481 -0.413,-3.562 -0.38,-4.857c0.126,-4.887 1.013,-8.988 1.013,-8.988c1.123,-5.034 0.2,-10.307 -2.566,-14.66c-2.765,-4.352 -7.147,-7.428 -12.181,-8.55l-46.864,-10.444c-3.537,-0.788 -7.073,-0.558 -10.292,0.504c-2.043,-8.545 -9.731,-14.895 -18.902,-14.895l-160.677,0c-3.741,0 -7.235,1.057 -10.198,2.889c-2.963,-1.832 -6.457,-2.889 -10.198,-2.889l-160.677,0c-9.171,0 -16.859,6.35 -18.902,14.895c-3.219,-1.062 -6.754,-1.292 -10.292,-0.504l-46.864,10.444c-5.034,1.122 -9.415,4.198 -12.181,8.55c-2.766,4.353 -3.689,9.626 -2.566,14.66c0,-0 0.887,4.101 1.013,8.988c0.034,1.295 -0.189,3.376 -0.38,4.857c-1.11,0.261 -2.521,0.551 -3.558,0.627c-5.235,0.384 -11.263,0.026 -14.802,-1.94c-0.136,-0.836 -0.39,-2.633 -0.362,-3.75c0.057,-2.256 0.391,-4.559 0.832,-6.77c1.715,-8.604 5.127,-15.998 5.127,-15.998c2.183,-4.7 2.399,-10.077 0.6,-14.937c-1.798,-4.86 -5.463,-8.801 -10.179,-10.948l-41.776,-19.014c-7.708,-3.507 -16.799,-1.623 -22.477,4.658c-3.886,4.299 -7.327,8.963 -10.305,13.898Zm-176.184,11.726l53.559,0l0,53.559l53.559,0l0,-53.559l53.559,0l0,160.678l-53.559,-0l0,-53.56l-53.559,0l0,53.56l-53.559,-0l-0,-160.678Zm363.256,0l160.677,0l0,53.559l-53.559,0l0,107.119l-53.559,-0l0,-107.119l-53.559,0l-0,-53.559Zm341.75,0l-160.677,0l-0,160.678l160.677,-0l0,-160.678Zm-504.094,-12.586c-33.945,37.55 -25.974,111.01 36.688,119.704l-0,53.56l53.559,-0l-0,-53.56c41.828,-7.77 61.257,-40.68 47.132,-93.192l-46.864,10.444c-0,-0 5.177,23.209 -3.749,32.135c-8.927,8.927 -34.693,7.303 -44.99,0c-17.496,-12.408 -0,-50.078 -0,-50.078l-41.776,-19.013Zm666.438,-0c33.945,37.55 25.974,111.01 -36.688,119.704l0,53.56l-53.559,-0l0,-53.56c-41.828,-7.77 -61.257,-40.68 -47.132,-93.192l46.864,10.444c0,-0 -5.177,23.209 3.75,32.135c8.926,8.927 34.692,7.303 44.989,0c17.496,-12.408 0,-50.078 0,-50.078l41.776,-19.013Zm-193.794,94.712c-5.155,1.955 -24.421,0.102 -28.899,-14.473c-8.34,15.71 -32.502,14.991 -39.565,-0c-3.297,14.1 -20.111,15.793 -29.313,14.473l0,52.647l97.777,0l0,-52.647Zm-62.379,40.857c4.703,4.015 11.686,5.325 18.259,4.198c6.595,-1.131 12.68,-4.703 15.644,-9.978c0.794,-1.414 0.291,-3.207 -1.123,-4.002c-1.414,-0.795 -3.207,-0.292 -4.002,1.123c-2.158,3.839 -6.712,6.24 -11.513,7.063c-4.825,0.827 -9.996,0.073 -13.448,-2.874c-1.233,-1.054 -3.09,-0.907 -4.143,0.327c-1.054,1.233 -0.907,3.09 0.326,4.143Zm40.224,-33.003c3.868,-0 7.009,4.439 7.009,9.908c-0,5.469 -3.141,9.908 -7.009,9.908c-3.869,0 -7.009,-4.439 -7.009,-9.908c-0,-5.469 3.14,-9.908 7.009,-9.908Zm-53.467,-0c3.869,-0 7.01,4.439 7.01,9.908c-0,5.469 -3.141,9.908 -7.01,9.908c-3.868,0 -7.009,-4.439 -7.009,-9.908c0,-5.469 3.141,-9.908 7.009,-9.908Z"/>
    </clipPath>
    <g clip-path="url(#_clip1)">
        <path d="M148.652,-20.677l-107.654,-0l-185.315,320.974l107.654,-0l185.315,-320.974Z" style="fill:#ffb26a;"/>
        <path d="M255.77,-20.677l-107.654,-0l-185.314,320.974l107.654,-0l185.314,-320.974Z" style="fill:#fda880;"/>
        <path d="M362.889,-20.677l-107.654,-0l-185.315,320.974l107.654,-0l185.315,-320.974Z" style="fill:#fb9a9c;"/>
        <path d="M470.007,-20.677l-107.654,-0l-185.315,320.974l107.654,-0l185.315,-320.974Z" style="fill:#f98abc;"/>
        <path d="M577.125,-20.677l-107.654,-0l-185.314,320.974l107.654,-0l185.314,-320.974Z" style="fill:#f675e8;"/>
        <path d="M684.243,-20.677l-107.653,-0l-185.315,320.974l107.654,-0l185.314,-320.974Z" style="fill:#e967fa;"/>
        <path d="M791.362,-20.677l-107.654,-0l-185.315,320.974l107.654,-0l185.315,-320.974Z" style="fill:#d160f0;"/>
        <path d="M898.48,-20.677l-107.654,-0l-185.314,320.974l107.653,-0l185.315,-320.974Z" style="fill:#b659e6;"/>
        <path d="M1005.6,-20.677l-107.653,-0l-185.315,320.974l107.654,-0l185.314,-320.974Z" style="fill:#9f53dd;"/>
        <path d="M1112.72,-20.677l-107.654,-0l-185.315,320.974l107.654,-0l185.315,-320.974Z" style="fill:#8d4ed6;"/>
    </g>
</svg>
