<svg width="100%" height="100%" viewBox="0 0 1000 1000" version="1.1" xmlns="http://www.w3.org/2000/svg" xmlns:xlink="http://www.w3.org/1999/xlink" xml:space="preserve" xmlns:serif="http://www.serif.com/" style="fill-rule:evenodd;clip-rule:evenodd;stroke-linejoin:round;stroke-miterlimit:2;">
    <clipPath id="_clip1">
        <path d="M672.826,539.838l99.922,-0l0,-72.764c-56.826,-10.557 -83.221,-55.266 -64.032,-126.608l63.668,14.189c0,0 -7.033,31.531 5.094,43.658c12.127,12.127 47.131,9.921 61.121,0c23.769,-16.857 -0,-68.033 -0,-68.033l56.755,-25.831c46.116,51.014 35.287,150.813 -49.843,162.625l0,72.764l31.793,-0l0,198.581l-754.608,-0l-0,-198.581l31.793,-0l-0,-72.764c-85.13,-11.812 -95.959,-111.611 -49.843,-162.625l56.755,25.831c0,-0 -23.769,51.176 0,68.033c13.99,9.921 48.994,12.127 61.121,0c12.127,-12.127 5.094,-43.658 5.094,-43.658l63.668,-14.189c19.189,71.342 -7.206,116.051 -64.032,126.608l-0,72.764l99.922,-0l0,-345.652l345.652,-0l-0,345.652Z"/>
    </clipPath>
    <g clip-path="url(#_clip1)">
        <path d="M260.1,173.845l-107.654,-0l-348.898,604.31l107.654,0l348.898,-604.31Z" style="fill:#ffb26a;"/>
        <path d="M367.219,173.845l-107.654,-0l-348.899,604.31l107.654,0l348.899,-604.31Z" style="fill:#fda880;"/>
        <path d="M474.337,173.845l-107.654,-0l-348.899,604.31l107.654,0l348.899,-604.31Z" style="fill:#fb9a9c;"/>
        <path d="M581.455,173.845l-107.654,-0l-348.898,604.31l107.654,0l348.898,-604.31Z" style="fill:#f98abc;"/>
        <path d="M688.574,173.845l-107.654,-0l-348.899,604.31l107.654,0l348.899,-604.31Z" style="fill:#f675e8;"/>
        <path d="M795.692,173.845l-107.654,-0l-348.899,604.31l107.654,0l348.899,-604.31Z" style="fill:#e967fa;"/>
        <path d="M902.81,173.845l-107.654,-0l-348.898,604.31l107.653,0l348.899,-604.31Z" style="fill:#d160f0;"/>
        <path d="M1009.93,173.845l-107.654,-0l-348.899,604.31l107.654,0l348.899,-604.31Z" style="fill:#b659e6;"/>
        <path d="M1117.05,173.845l-107.654,-0l-348.899,604.31l107.654,0l348.899,-604.31Z" style="fill:#9f53dd;"/>
        <path d="M1224.16,173.845l-107.654,-0l-348.899,604.31l107.654,0l348.899,-604.31Z" style="fill:#8d4ed6;"/>
    </g>
    <path d="M281.561,698.702l-0,-119.148l-39.716,-0l-0,39.716l-39.717,0l0,-39.716l-39.716,-0l0,119.148l39.716,0l0,-39.716l39.717,0l-0,39.716l39.716,0Z" style="fill:#fff;"/>
    <path d="M341.135,619.27l0,-39.716l-39.716,-0l-0,79.432l39.716,0l0,39.716l39.716,0l0,-39.716l39.717,0l-0,-79.432l-39.717,-0l0,39.716l-39.716,0Z" style="fill:#fff;"/>
    <path d="M519.858,619.27l39.716,0l0,-39.716l-119.148,-0l-0,39.716l39.716,0l-0,79.432l39.716,0l0,-79.432Z" style="fill:#fff;"/>
    <path d="M579.432,698.702l119.149,0l0,-119.148l-119.149,-0l0,119.148Zm39.717,-79.432l-0,39.716l39.716,0l-0,-39.716l-39.716,0Z" style="fill:#fff;"/>
    <path d="M758.155,619.27l0,-39.716l-39.716,-0l0,79.432l39.716,0l0,39.716l39.717,0l-0,-39.716l39.716,0l-0,-79.432l-39.716,-0l-0,39.716l-39.717,0Z" style="fill:#fff;"/>
    <path d="M605.17,370.857c-11.089,4.204 -52.535,0.218 -62.168,-31.136c-17.942,33.796 -69.92,32.25 -85.114,-0c-7.092,30.333 -43.262,33.975 -63.058,31.136l0,113.254l210.34,0l-0,-113.254Zm-134.191,87.892c10.116,8.637 25.138,11.455 39.278,9.03c14.189,-2.434 27.278,-10.118 33.653,-21.464c1.71,-3.042 0.628,-6.9 -2.414,-8.61c-3.042,-1.709 -6.9,-0.627 -8.61,2.415c-4.641,8.259 -14.438,13.424 -24.767,15.195c-10.378,1.78 -21.503,0.157 -28.928,-6.183c-2.654,-2.266 -6.649,-1.951 -8.915,0.703c-2.265,2.654 -1.951,6.648 0.703,8.914Zm-28.488,-70.998c8.322,-0 15.078,9.551 15.078,21.315c0,11.764 -6.756,21.315 -15.078,21.315c-8.322,0 -15.078,-9.551 -15.078,-21.315c0,-11.764 6.756,-21.315 15.078,-21.315Zm115.018,-0c8.322,-0 15.078,9.551 15.078,21.315c-0,11.764 -6.756,21.315 -15.078,21.315c-8.322,0 -15.078,-9.551 -15.078,-21.315c-0,-11.764 6.756,-21.315 15.078,-21.315Z" style="fill:#fff;"/>
</svg>
