<?xml version="1.0" encoding="UTF-8" standalone="no"?>
<!DOCTYPE svg PUBLIC "-//W3C//DTD SVG 1.1//EN" "http://www.w3.org/Graphics/SVG/1.1/DTD/svg11.dtd">
<svg width="100%" height="100%" viewBox="0 0 1000 280" version="1.1" xmlns="http://www.w3.org/2000/svg" xmlns:xlink="http://www.w3.org/1999/xlink" xml:space="preserve" xmlns:serif="http://www.serif.com/" style="fill-rule:evenodd;clip-rule:evenodd;stroke-linejoin:round;stroke-miterlimit:2;">
    <rect id="アートボード1" x="0" y="0" width="1000" height="280" style="fill:none;"/>
    <g>
        <path d="M232.75,54.229c-3.548,-4.688 -9.174,-7.716 -15.507,-7.716l-53.559,0c-10.737,0 -19.442,8.705 -19.442,19.442l0,34.117c0,0 -14.675,0 -14.675,0c0,0 0,-34.117 0,-34.117c0,-10.737 -8.704,-19.442 -19.442,-19.442l-53.559,0c-10.738,0 -19.442,8.705 -19.442,19.442l-0,160.678c-0,10.737 8.704,19.442 19.442,19.442l53.559,-0c10.738,-0 19.442,-8.705 19.442,-19.442l0,-34.118c0,0 14.675,0 14.675,0c0,0 0,34.118 0,34.118c0,10.737 8.705,19.442 19.442,19.442l53.559,-0c10.738,-0 19.442,-8.705 19.442,-19.442l0,-64.175c9.136,11.561 21.763,20.788 38.039,26.067c-0,0 -0,38.108 -0,38.108c-0,10.737 8.704,19.442 19.442,19.442l53.559,-0c10.737,-0 19.442,-8.705 19.442,-19.442l-0,-38.676c19.325,-6.889 33.591,-19.127 42.3,-35.626c2.276,-4.313 4.175,-8.966 5.651,-13.951c1.505,0.378 3.081,0.576 4.704,0.576l34.117,0c0,0 0,87.677 0,87.677c0,10.737 8.705,19.442 19.442,19.442l53.559,-0c10.738,-0 19.442,-8.705 19.442,-19.442l0,-87.677c0,0 34.117,0 34.117,0l0.954,-0.024l-0,87.701c-0,10.737 8.704,19.442 19.442,19.442l160.677,-0c10.738,-0 19.442,-8.705 19.442,-19.442l0,-60.916c8.426,9.832 19.556,17.372 33.213,22.24c0,-0 0,38.676 0,38.676c0,10.737 8.705,19.442 19.442,19.442l53.559,-0c10.738,-0 19.442,-8.705 19.442,-19.442l0,-38.108c64.537,-20.934 71.688,-103.923 31.669,-148.194c-5.678,-6.281 -14.769,-8.165 -22.476,-4.658l-41.776,19.014c-4.717,2.147 -8.382,6.088 -10.18,10.948c-1.799,4.86 -1.583,10.237 0.6,14.937c0,-0 3.412,7.394 5.128,15.998c0.441,2.211 0.774,4.514 0.831,6.77c0.029,1.117 -0.226,2.914 -0.362,3.75c-3.539,1.966 -9.566,2.324 -14.802,1.94c-1.037,-0.076 -2.448,-0.366 -3.558,-0.627c-0.191,-1.481 -0.413,-3.562 -0.38,-4.857c0.126,-4.887 1.013,-8.988 1.013,-8.988c1.123,-5.034 0.2,-10.307 -2.566,-14.66c-2.765,-4.352 -7.147,-7.428 -12.181,-8.55l-46.864,-10.444c-3.537,-0.788 -7.073,-0.558 -10.292,0.504c-2.043,-8.545 -9.731,-14.895 -18.902,-14.895l-160.677,0c-3.741,0 -7.235,1.057 -10.198,2.889c-2.963,-1.832 -6.457,-2.889 -10.198,-2.889l-160.677,0c-9.171,0 -16.859,6.35 -18.902,14.895c-3.219,-1.062 -6.754,-1.292 -10.292,-0.504l-46.864,10.444c-5.034,1.122 -9.415,4.198 -12.181,8.55c-2.766,4.353 -3.689,9.626 -2.566,14.66c0,-0 0.887,4.101 1.013,8.988c0.034,1.295 -0.189,3.376 -0.38,4.857c-1.11,0.261 -2.521,0.551 -3.558,0.627c-5.235,0.384 -11.263,0.026 -14.802,-1.94c-0.136,-0.836 -0.39,-2.633 -0.362,-3.75c0.057,-2.256 0.391,-4.559 0.832,-6.77c1.715,-8.604 5.127,-15.998 5.127,-15.998c2.183,-4.7 2.399,-10.077 0.6,-14.937c-1.798,-4.86 -5.463,-8.801 -10.179,-10.948l-41.776,-19.014c-7.708,-3.507 -16.799,-1.623 -22.477,4.658c-3.886,4.299 -7.327,8.963 -10.305,13.898Z" style="fill:#fff;"/>
        <path d="M56.566,65.955l53.559,0l0,53.559l53.559,0l0,-53.559l53.559,0l0,160.678l-53.559,-0l0,-53.56l-53.559,0l0,53.56l-53.559,-0l-0,-160.678Zm363.256,0l160.677,0l0,53.559l-53.559,0l0,107.119l-53.559,-0l0,-107.119l-53.559,0l-0,-53.559Zm341.75,0l-160.677,0l-0,160.678l160.677,-0l0,-160.678Zm-504.094,-12.586c-33.945,37.55 -25.974,111.01 36.688,119.704l-0,53.56l53.559,-0l-0,-53.56c41.828,-7.77 61.257,-40.68 47.132,-93.192l-46.864,10.444c-0,-0 5.177,23.209 -3.749,32.135c-8.927,8.927 -34.693,7.303 -44.99,0c-17.496,-12.408 -0,-50.078 -0,-50.078l-41.776,-19.013Zm666.438,-0c33.945,37.55 25.974,111.01 -36.688,119.704l0,53.56l-53.559,-0l0,-53.56c-41.828,-7.77 -61.257,-40.68 -47.132,-93.192l46.864,10.444c0,-0 -5.177,23.209 3.75,32.135c8.926,8.927 34.692,7.303 44.989,0c17.496,-12.408 0,-50.078 0,-50.078l41.776,-19.013Zm-193.794,94.712c-5.155,1.955 -24.421,0.102 -28.899,-14.473c-8.34,15.71 -32.502,14.991 -39.565,-0c-3.297,14.1 -20.111,15.793 -29.313,14.473l0,52.647l97.777,0l0,-52.647Zm-62.379,40.857c4.703,4.015 11.686,5.325 18.259,4.198c6.595,-1.131 12.68,-4.703 15.644,-9.978c0.794,-1.414 0.291,-3.207 -1.123,-4.002c-1.414,-0.795 -3.207,-0.292 -4.002,1.123c-2.158,3.839 -6.712,6.24 -11.513,7.063c-4.825,0.827 -9.996,0.073 -13.448,-2.874c-1.233,-1.054 -3.09,-0.907 -4.143,0.327c-1.054,1.233 -0.907,3.09 0.326,4.143Zm40.224,-33.003c3.868,-0 7.009,4.439 7.009,9.908c-0,5.469 -3.141,9.908 -7.009,9.908c-3.869,0 -7.009,-4.439 -7.009,-9.908c-0,-5.469 3.14,-9.908 7.009,-9.908Zm-53.467,-0c3.869,-0 7.01,4.439 7.01,9.908c-0,5.469 -3.141,9.908 -7.01,9.908c-3.868,0 -7.009,-4.439 -7.009,-9.908c0,-5.469 3.141,-9.908 7.009,-9.908Z"/>
    </g>
</svg>
